<?xml version="1.0" ?><!DOCTYPE svg  PUBLIC '-//W3C//DTD SVG 1.1//EN'  'http://www.w3.org/Graphics/SVG/1.1/DTD/svg11.dtd'><svg height="2048px" style="shape-rendering:geometricPrecision; text-rendering:geometricPrecision; image-rendering:optimizeQuality; fill-rule:evenodd; clip-rule:evenodd" viewBox="0 0 2048 2048" width="2048px" xml:space="preserve" xmlns="http://www.w3.org/2000/svg" xmlns:xlink="http://www.w3.org/1999/xlink"><defs><style type="text/css">
   <![CDATA[
    .fil3 {fill:none}
    .fil2 {fill:black}
    .fil0 {fill:#D42927}
    .fil1 {fill:#FFFFFE}
   ]]>
  </style></defs><g id="Layer_x0020_1"><g id="_251945080"><path class="fil0" d="M1664 1141.42l0 452.993c0,108.669 -94.252,197.587 -209.41,197.587l-861.183 0c-115.243,0 -209.41,-88.9182 -209.41,-197.587l0 -452.993c0,-108.676 94.167,-197.588 209.41,-197.588l861.183 0c115.158,0 209.41,88.9123 209.41,197.588z" id="_251945488"/><polygon class="fil1" id="_251945728" points="473.002,1095.34 473.002,1164.84 561.837,1165.08 561.837,1643.58 650.834,1643.58 650.834,1166.42 757.586,1166.42 757.586,1095.74 "/><path class="fil1" d="M740.157 1237.5l0.259843 252.503c0.0850394,38.739 -0.918898,67.5839 0.338977,80.7426 2.15315,23.1732 1.32402,50.1556 22.8284,65.5819 40.0807,28.8402 116.838,-4.32992 135.997,-45.5894l-0.170079 52.6713 71.5087 0.0850394 -0.0838583 -405.995 -89.0044 0 0 254.825c0,36.8457 2.2441,55.2532 -0.0838583,61.7599 -7.25079,19.7327 -39.7429,40.7469 -52.5024,2.15906 -2.08583,-6.74292 -0.253937,-27.1583 -0.253937,-62.165l-0.320079 -256.579 -88.5142 0z" id="_251945536"/><path class="fil1" d="M1024.26 1095.83l-0.429922 544.258 73.0867 -1.08898 6.65788 -33.9189c93.4182,85.7564 152.173,27.0071 151.999,-75.7359l-0.145276 -212.179c-0.0850394,-80.7485 -60.5882,-129.151 -142.678,-63.828l0.422835 -157.676 -88.9123 0.168898zm87.4005 210.753c0,-17.5795 17.5122,-32.002 38.8477,-32.002 21.5032,0 38.9988,14.4225 38.9988,32.002l0 238.08c0,17.5795 -17.4957,31.9181 -38.9988,31.9181 -21.3354,0 -38.8477,-14.3386 -38.8477,-31.9181l0 -238.08z" id="_251945296"/><path class="fil1" d="M1357.91 1235.09c-16.9134,12.1618 -29.8252,28.4162 -37.3359,50.3256 -7.57087,21.8244 -11.3256,51.6733 -11.3256,89.6682l0 126.418c0,210.239 255.338,180.504 224.921,-0.338977l-66.756 0.424016c-0.0838583,2.58189 -0.168898,5.65394 -0.168898,9.00355l0 37.2508c0,19.9016 -16.4906,36.0721 -36.5008,36.0721l-13.0807 0c-19.9866,0 -36.5008,-16.1705 -36.5008,-36.0721l0 -98.0068 152.831 0 0 -57.4914c0,-42.0107 -1.0878,-84.0142 -4.49882,-108.1 -10.9878,-75.9898 -117.656,-88.0843 -171.585,-49.1528zm70.0158 55.9193c21.8244,0 39.7477,17.8335 39.7477,39.5729l-0.918898 48.9166 -84.3284 0 0.405118 -48.9166c0,-21.7394 17.8335,-39.5729 39.6756,-39.5729l5.4189 0z" id="_251944744"/><polygon class="fil2" id="_251945416" points="694.162,533.907 694.338,857.344 787.925,857.344 788.01,533.762 898.583,256.575 796.245,256.575 737.406,462.422 677.822,255.999 576.488,255.999 "/><path class="fil2" d="M901.244 481.411c-6.65197,22.8461 -10.0878,54.4193 -10.0878,94.93l0 111.747c0,36.9059 1.74803,64.6571 5.50394,83.1556 3.75473,18.4323 9.91654,34.2638 18.6673,47.2536 8.65985,13.0134 20.8453,22.8461 36.5859,29.2441 15.6567,6.59764 34.754,9.66969 57.3461,9.66969 20.2406,0 38.1638,-3.65197 53.8205,-11.3327 15.5114,-7.48583 28.2461,-19.2425 38.1638,-35.0681 10.0937,-15.9165 16.5756,-32.9209 19.5874,-51.2681 3.00591,-18.2386 4.58386,-47.0776 4.58386,-86.1615l0 -106.752c0,-30.913 -1.66299,-53.8264 -4.92874,-69.078 -3.32599,-14.9965 -9.40276,-29.674 -18.4075,-43.9264 -8.83465,-14.2476 -21.5043,-25.7492 -38.08,-34.5792 -16.4244,-8.83465 -36.078,-13.3335 -59.0091,-13.3335 -27.3272,0 -49.7504,6.92953 -67.239,20.7543 -17.5795,13.7634 -29.765,32.002 -36.5067,54.7453zm67.5839 262.505l0 -224.576c0,-23.8323 17.8394,-43.3536 39.5126,-43.3536 21.6543,0 39.3189,19.5213 39.3189,43.3536l0 224.576c0,23.9103 -17.6646,43.4126 -39.3189,43.4126 -21.6732,0 -39.5126,-19.5024 -39.5126,-43.4126z" id="_251944864"/><path class="fil2" d="M1181.59 422.25l0 284.583c0,36.2469 0.659056,60.4182 1.74685,72.6638 1.08898,12.1606 3.90709,23.8323 8.49095,35.1768 4.58977,11.0728 11.6705,20.1614 21.4193,26.9894 9.49371,6.76064 21.7642,10.0925 36.4158,10.0925 12.8445,0 24.1713,-3.41693 34.0949,-10.5827 9.83268,-7.16575 18.1536,-17.7484 24.9142,-31.917l-1.66299 34.904 99.2422 0 0 -421.91 -78.0827 0 0 328.341c0,17.8335 -14.6764,32.3233 -32.5949,32.3233 -17.8146,0 -32.491,-14.4898 -32.491,-32.3233l0 -328.341 -81.4926 0z" id="_251944672"/></g></g><rect class="fil3" height="2048" width="2048"/></svg>